<svg width="186" height="126" viewBox="0 0 186 126" fill="none" xmlns="http://www.w3.org/2000/svg">
  <circle cx="93" cy="63" r="57" fill="url(#paint0_linear_1417_178715)" />
  <circle cx="147" cy="23" r="5" fill="#ECF0FF" />
  <circle cx="143.5" cy="12.5" r="2.5" fill="#ECF0FF" />
  <g filter="url(#filter0_d_1417_178715)">
    <rect x="30" y="34" width="126" height="58" rx="4" fill="white" />
    <rect x="37" y="41" width="44" height="44" rx="8" fill="#EAEEF9" />
    <path
      d="M64 74L59.2381 65.2698L63 59L71 74H64ZM56 63L62 74H50L56 63ZM53.5 61C52.1193 61 51 59.8807 51 58.5C51 57.1193 52.1193 56 53.5 56C54.8807 56 56 57.1193 56 58.5C56 59.8807 54.8807 61 53.5 61Z"
      fill="black" fill-opacity="0.2" />
    <rect x="90" y="41" width="57" height="8" rx="2" fill="#C1C7D5" />
    <rect x="90" y="54" width="42" height="4" rx="1" fill="#C1C7D5" />
    <rect x="90" y="63" width="33" height="4" rx="1" fill="#C1C7D5" />
    <rect x="90" y="72" width="23" height="4" rx="1" fill="#C1C7D5" />
    <rect x="90" y="81" width="29" height="4" rx="1" fill="#C1C7D5" />
  </g>
  <circle cx="44" cy="108" r="3" fill="#ECF0FF" />
  <circle cx="40.5" cy="114.5" r="1.5" fill="#ECF0FF" />
  <defs>
    <filter id="filter0_d_1417_178715" x="0" y="4" width="186" height="118"
      filterUnits="userSpaceOnUse" color-interpolation-filters="sRGB">
      <feFlood flood-opacity="0" result="BackgroundImageFix" />
      <feColorMatrix in="SourceAlpha" type="matrix"
        values="0 0 0 0 0 0 0 0 0 0 0 0 0 0 0 0 0 0 127 0" result="hardAlpha" />
      <feOffset />
      <feGaussianBlur stdDeviation="15" />
      <feComposite in2="hardAlpha" operator="out" />
      <feColorMatrix type="matrix" values="0 0 0 0 0 0 0 0 0 0 0 0 0 0 0 0 0 0 0.08 0" />
      <feBlend mode="normal" in2="BackgroundImageFix" result="effect1_dropShadow_1417_178715" />
      <feBlend mode="normal" in="SourceGraphic" in2="effect1_dropShadow_1417_178715" result="shape" />
    </filter>
    <linearGradient id="paint0_linear_1417_178715" x1="93" y1="6" x2="93" y2="120"
      gradientUnits="userSpaceOnUse">
      <stop stop-color="#EAEDF8" />
      <stop offset="1" stop-color="#F0F1FB" />
    </linearGradient>
  </defs>
</svg>